:SAMPLES-PER-SECOND 30
:FULLY-SPECIFIED
:DEGREES
97
root  4.9639 37.0388 0.268933 3.52811 -61.6556 -3.34901
RightUpLeg  -23.4374 -0.608509 4.92583
RightLeg  42.3608 -5.74745 -5.88644
RightFoot  -18.0707 0.420459 9.22867
RightToes  -1.28057e-009 0 -3.6325e-017
Spine  20.7897 -6.04682 1.12226
Spine1  0.493469 -6.7803 3.30334
HEad  -29.6241 -8.08996 2.28565
LeftShoulder1  3.84764 -10.1501 -21.8647
LeftArm  30.4101 -18.0639 -57.5358
LeftForeArm  28.4903 -16.3314 -8.95296
LeftHand  1.96032 9.1842 54.1276
RightShoulder  1.27158 2.43323 14.6434
RightArm  -5.8254 9.24163 64.8547
RightForeArm  38.9925 10.7369 10.4137
RightHand  -3.06314 1.33096 -49.9435
LeftUpLeg  -25.9134 -12.729 -1.09096
LeftLeg  44.0644 6.86381 7.48892
LeftFoot  -16.8776 0.0101163 -1.83403
LeftToes  -7.27922e-012 9.28972e-011 -9.04533e-012
98
root  4.6873 37.0594 1.23414 -18.1007 -66.7771 16.9794
RightUpLeg  -21.5348 11.3154 -4.27231
RightLeg  47.0233 -8.02934 -9.42249
RightFoot  -18.8401 0.477011 9.22309
RightToes  -1.28057e-009 0 -3.6325e-017
Spine  16.6861 -6.36382 7.5152
Spine1  3.71516 -2.71337 -14.3509
HEad  -24.2381 -11.1178 -1.56473
LeftShoulder1  3.07903 -9.22701 -17.5048
LeftArm  1.3488 -12.2769 -47.5362
LeftForeArm  28.9471 -12.8774 -10.0121
LeftHand  1.70598 8.65764 54.4546
RightShoulder  1.22274 2.81628 12.317
RightArm  12.4968 17.2861 76.6486
RightForeArm  39.6679 13.7427 9.35419
RightHand  -3.11981 1.22209 -51.4457
LeftUpLeg  -19.175 0.629585 -11.2347
LeftLeg  39.8114 3.79548 3.8537
LeftFoot  -17.4396 0.0434671 -1.13406
LeftToes  -7.27922e-012 9.28972e-011 -9.04533e-012
99
root  4.49578 37.1163 1.95494 -43.3295 -69.7132 42.054
RightUpLeg  -21.914 21.9957 -11.6207
RightLeg  50.1085 -9.10732 -11.7943
RightFoot  -18.5003 0.361235 7.74538
RightToes  -1.28057e-009 0 -3.6325e-017
Spine  15.7362 -4.45052 11.2012
Spine1  3.40622 2.11974 -26.2026
HEad  -19.6571 -13.2975 -5.55669
LeftShoulder1  2.05318 -7.10508 -12.2541
LeftArm  -16.4591 -12.0541 -43.3022
LeftForeArm  23.6491 -17.7513 -6.12745
LeftHand  2.18806 9.50892 55.4517
RightShoulder  0.927935 2.45916 8.05406
RightArm  29.7095 25.9688 85.0196
RightForeArm  36.8017 24.4336 3.67394
RightHand  -3.55468 1.96123 -52.5788
LeftUpLeg  -15.9483 16.2473 -17.9313
LeftLeg  36.3521 -1.62613 -0.921207
LeftFoot  -15.8542 0.00870734 -2.27359
LeftToes  -7.27922e-012 9.28972e-011 -9.04533e-012
100
root  4.5761 37.1239 2.2934 -56.4987 -70.0863 55.4518
RightUpLeg  -23.4789 26.3094 -15.027
RightLeg  51.4873 -9.1032 -12.3809
RightFoot  -17.538 0.206517 6.01352
RightToes  -1.28057e-009 0 -3.6325e-017
Spine  17.8394 -3.14605 13.0763
Spine1  0.483557 4.19329 -30.2393
HEad  -17.1659 -14.0926 -8.77269
LeftShoulder1  1.26662 -4.05745 -9.42387
LeftArm  -30.0974 -19.0016 -41.3491
LeftForeArm  25.7704 -27.9147 -4.2846
LeftHand  2.22841 9.51062 56.2762
RightShoulder  0.532177 1.44839 2.57236
RightArm  21.9856 35.7772 85.8681
RightForeArm  46.8834 36.6617 5.56289
RightHand  -3.55327 1.95196 -52.6018
LeftUpLeg  -16.5288 23.4487 -20.5927
LeftLeg  36.6818 -4.23051 -2.96973
LeftFoot  -13.475 0.00874496 -3.82374
LeftToes  -7.27922e-012 9.28972e-011 -9.04533e-012
101
root  4.92779 36.9408 2.17941 -52.0966 -70.3394 50.6281
RightUpLeg  -24.2909 23.3159 -13.849
RightLeg  52.2041 -7.84189 -11.0437
RightFoot  -17.1452 0.131276 4.89395
RightToes  -1.28057e-009 0 -3.6325e-017
Spine  21.2716 -3.35265 12.7594
Spine1  -2.47921 3.23444 -27.7191
HEad  -17.0849 -13.7481 -9.12382
LeftShoulder1  0.83409 -1.99775 -7.6074
LeftArm  -41.1253 -30.89 -40.1138
LeftForeArm  36.0305 -39.575 -6.99015
LeftHand  2.28691 9.58073 56.6842
RightShoulder  0.211479 -0.270038 -2.22548
RightArm  8.7139 44.854 78.843
RightForeArm  48.6957 49.9933 9.75389
RightHand  -3.20812 1.30278 -52.1834
LeftUpLeg  -18.786 18.566 -19.7772
LeftLeg  40.0062 -1.14086 -0.555326
LeftFoot  -12.8725 0.00932106 -4.98184
LeftToes  -7.27922e-012 9.28972e-011 -9.04533e-012
102
root  5.36061 36.5389 1.62497 -37.2281 -70.4931 34.679
RightUpLeg  -24.4689 16.112 -9.20763
RightLeg  52.7475 -5.66532 -8.30723
RightFoot  -17.6897 0.0774468 3.57693
RightToes  -1.28057e-009 0 -3.6325e-017
Spine  25.6591 -3.67838 9.36304
Spine1  -5.27857 0.999218 -19.7881
HEad  -18.4452 -12.4427 -6.56206
LeftShoulder1  0.723308 -2.54894 -4.12843
LeftArm  -45.2534 -43.4409 -39.4243
LeftForeArm  46.6864 -53.1531 -11.4721
LeftHand  2.9296 10.7667 56.7577
RightShoulder  0.0343189 -2.659 -5.00932
RightArm  -11.5605 50.4874 64.546
RightForeArm  47.0009 58.3151 13.8076
RightHand  -3.11788 1.14013 -52.0128
LeftUpLeg  -21.2955 8.41589 -15.9127
LeftLeg  44.8972 3.54848 4.24419
LeftFoot  -14.293 -0.0673522 -5.8682
LeftToes  -7.27922e-012 9.28972e-011 -9.04533e-012
103
root  5.66187 36.1237 0.739105 -16.2872 -69.6848 13.7281
RightUpLeg  -25.8341 7.52524 -1.98534
RightLeg  52.098 -3.43617 -5.1144
RightFoot  -18.1086 -0.0376143 1.41594
RightToes  -1.28057e-009 0 -3.6325e-017
Spine  29.7804 -2.50098 3.22869
Spine1  -9.0348 -0.950189 -5.98006
HEad  -19.8323 -9.75024 -3.67658
LeftShoulder1  0.552172 -4.41864 1.64338
LeftArm  -42.1772 -54.6148 -42.7879
LeftForeArm  59.6291 -66.2414 -19.1437
LeftHand  3.2234 11.3939 56.0637
RightShoulder  -0.0520769 -5.17641 -6.09332
RightArm  -33.8544 50.5278 45.6601
RightForeArm  42.3968 58.1127 14.3334
RightHand  -3.409 1.62047 -52.8089
LeftUpLeg  -25.6357 -2.54203 -8.95763
LeftLeg  50.3771 6.94079 9.36348
LeftFoot  -15.7294 -0.197903 -7.63072
LeftToes  -7.27922e-012 9.28972e-011 -9.04533e-012
104
root  5.69828 35.8227 -0.240135 8.46675 -65.8341 -9.28352
RightUpLeg  -28.78 -1.99771 8.32381
RightLeg  49.4682 -1.17089 -1.83752
RightFoot  -17.9899 -0.105027 0.31366
RightToes  -1.28057e-009 0 -3.6325e-017
Spine  31.7644 -0.478882 -3.37341
Spine1  -12.9621 -2.31093 13.1325
HEad  -20.9551 -5.51518 -1.99348
LeftShoulder1  0.12112 -5.50136 8.18647
LeftArm  -29.1917 -67.1115 -53.8166
LeftForeArm  70.3373 -71.9232 -25.4383
LeftHand  2.88928 10.8542 55.3586
RightShoulder  -0.10053 -6.76989 -6.11258
RightArm  -47.061 46.0154 32.0751
RightForeArm  36.0275 52.2453 11.6403
RightHand  -3.7414 2.02291 -54.5485
LeftUpLeg  -33.1082 -13.3579 2.33544
LeftLeg  55.9471 8.43004 13.6481
LeftFoot  -15.8164 -0.291324 -9.90777
LeftToes  -7.27922e-012 9.28972e-011 -9.04533e-012
105
root  5.49136 35.5052 -1.06136 26.2079 -58.2797 -25.4256
RightUpLeg  -31.8368 -11.9706 19.9912
RightLeg  46.5012 2.08167 2.00371
RightFoot  -18.5776 0.0679468 2.97973
RightToes  -1.28057e-009 0 -3.6325e-017
Spine  32.238 0.648989 -8.38868
Spine1  -14.4557 -3.89013 31.9443
HEad  -22.7013 -0.599561 0.207228
LeftShoulder1  -0.29293 -5.42213 13.4376
LeftArm  8.57652 -67.8699 -87.1017
LeftForeArm  68.1733 -67.6714 -20.34
LeftHand  2.98254 10.915 56.2767
RightShoulder  -0.136123 -6.86547 -4.97418
RightArm  -51.8826 40.0645 27.546
RightForeArm  32.184 46.6272 9.51474
RightHand  -3.92387 2.21197 -55.5944
LeftUpLeg  -41.9036 -22.1094 15.9618
LeftLeg  61.2589 8.57864 17.013
LeftFoot  -14.9673 -0.242129 -10.3786
LeftToes  -7.27922e-012 9.28972e-011 -9.04533e-012
106
root  5.2675 35.1952 -1.61083 33.5263 -51.9656 -32.4447
RightUpLeg  -33.6774 -19.648 28.4478
RightLeg  45.0114 6.08809 6.18936
RightFoot  -20.0776 0.535734 8.73548
RightToes  -1.28057e-009 0 -3.6325e-017
Spine  32.7761 1.1691 -11.8441
Spine1  -12.402 -6.13253 43.3504
HEad  -25.5174 3.55671 4.77782
LeftShoulder1  -0.425323 -5.23492 15.2046
LeftArm  56.214 -69.6469 -128.289
LeftForeArm  60.8151 -55.8658 -11.6044
LeftHand  3.47924 11.6004 58.1264
RightShoulder  -0.160375 -5.90735 -1.9055
RightArm  -52.4392 32.6424 31.0963
RightForeArm  30.5641 43.987 8.70102
RightHand  -4.2445 2.7672 -55.9582
LeftUpLeg  -48.2935 -26.7855 25.8779
LeftLeg  65.2161 8.52854 20.019
LeftFoot  -13.4727 -0.072224 -8.03397
LeftToes  -7.27922e-012 9.28972e-011 -9.04533e-012
107
root  5.23899 34.8682 -1.87036 36.6206 -50.8653 -35.3907
RightUpLeg  -34.8726 -21.4961 31.2734
RightLeg  45.9606 8.51357 9.01122
RightFoot  -21.6325 1.03952 13.1732
RightToes  -1.28057e-009 0 -3.6325e-017
Spine  32.7467 1.92701 -13.7525
Spine1  -8.61972 -7.72459 45.3458
HEad  -28.9706 5.88902 10.0256
LeftShoulder1  -0.233971 -5.90054 12.5485
LeftArm  67.0399 -56.7529 -131.353
LeftForeArm  54.9434 -41.9357 -6.4954
LeftHand  3.25142 11.0853 58.9762
RightShoulder  -0.0919594 -4.33459 3.34729
RightArm  -49.106 23.9296 38.5816
RightForeArm  28.459 42.3827 8.31405
RightHand  -4.38492 2.94617 -56.4922
LeftUpLeg  -51.0531 -26.6827 28.9447
LeftLeg  67.797 8.30711 22.0448
LeftFoot  -12.3667 0.0269616 -5.79209
LeftToes  -7.27922e-012 9.28972e-011 -9.04533e-012
